<svg width="75" height="75" viewBox="0 0 75 75" fill="none" xmlns="http://www.w3.org/2000/svg">
<path d="M75 37.5C75 58.2107 58.2107 75 37.5 75C16.7893 75 0 58.2107 0 37.5C0 16.7893 16.7893 0 37.5 0C58.2107 0 75 16.7893 75 37.5Z" fill="#252423"/>
<path d="M18.6739 17.5049C18.312 17.8667 17.9451 18.1207 17.5729 18.2669C17.1961 18.4083 16.8308 18.444 16.4772 18.374C16.1188 18.2992 15.7914 18.1135 15.4948 17.8169L16.2796 17.0322C16.5149 17.2675 16.7865 17.3679 17.0941 17.3333C17.3971 17.294 17.7001 17.1228 18.0033 16.8196C18.2869 16.536 18.4435 16.2476 18.473 15.9545C18.5025 15.6613 18.402 15.3994 18.1713 15.1687C17.9783 14.9757 17.7549 14.8648 17.5012 14.836C17.2524 14.8023 16.9994 14.8623 16.7423 15.0159L15.8769 15.5C15.3774 15.7828 14.8907 15.9024 14.4166 15.8586C13.9427 15.8052 13.5245 15.5973 13.162 15.2348C12.8795 14.9523 12.6984 14.6392 12.6186 14.2953C12.5387 13.9514 12.5622 13.5984 12.689 13.2362C12.8158 12.8741 13.0454 12.5267 13.3779 12.1942C13.8669 11.7053 14.3851 11.4412 14.9327 11.4021C15.4852 11.358 15.9781 11.5478 16.4114 11.9713L15.6193 12.7634C15.3933 12.5374 15.141 12.4367 14.8623 12.4611C14.5838 12.476 14.3101 12.6179 14.0412 12.8868C13.782 13.146 13.6403 13.4101 13.616 13.6792C13.587 13.9436 13.6808 14.184 13.8974 14.4006C14.0904 14.5936 14.3113 14.7069 14.5601 14.7406C14.8138 14.7694 15.0716 14.7093 15.3334 14.5605L16.2132 14.0761C16.708 13.7885 17.1923 13.6714 17.6662 13.7248C18.1401 13.7782 18.5606 13.9885 18.9278 14.3557C19.215 14.6428 19.3983 14.968 19.4778 15.331C19.5525 15.6894 19.524 16.0569 19.3921 16.4335C19.2556 16.8055 19.0161 17.1626 18.6739 17.5049Z" fill="#C2983D"/>
<path d="M23.7781 13.7907L20.5411 8.18409L18.888 9.13853L18.375 8.25L22.5969 5.8125L23.1099 6.70103L21.4567 7.65548L24.6937 13.2621L23.7781 13.7907Z" fill="#C2983D"/>
<path d="M27.0661 11.6937L26.829 3.99266L28.1299 3.64409L31.775 10.4319L30.7765 10.6995L29.8814 8.9716L27.985 9.47974L28.0739 11.4237L27.0661 11.6937ZM27.9316 8.54741L29.4524 8.13993L28.4332 6.16872C28.2546 5.8195 28.1014 5.51663 27.9738 5.26011C27.8505 4.99533 27.7663 4.81578 27.7214 4.72145C27.7297 4.8256 27.7466 5.02315 27.7722 5.31411C27.796 5.59846 27.8139 5.93402 27.8259 6.32081L27.9316 8.54741Z" fill="#C2983D"/>
<path d="M35.0625 9.9375V2.4375H36.4479L37.2083 4.84161C37.2847 5.06764 37.3507 5.28681 37.4062 5.49914C37.4618 5.70462 37.5 5.85873 37.5208 5.96147C37.5486 5.85873 37.5868 5.70462 37.6354 5.49914C37.691 5.28681 37.7535 5.06764 37.8229 4.84161L38.5521 2.4375H39.9375V9.9375H38.875V7.4101C38.875 7.08818 38.8819 6.73202 38.8958 6.34161C38.9167 5.94435 38.9444 5.54709 38.9792 5.14983C39.0139 4.74572 39.0486 4.36216 39.0833 3.99914C39.1181 3.62928 39.1493 3.30736 39.1771 3.03339L38.0521 6.68065H36.9688L35.8229 3.03339C35.8576 3.30051 35.8924 3.61216 35.9271 3.96832C35.9618 4.31764 35.9931 4.69092 36.0208 5.08818C36.0486 5.48545 36.0729 5.88613 36.0938 6.29024C36.1146 6.6875 36.125 7.06079 36.125 7.4101V9.9375H35.0625Z" fill="#C2983D"/>
<path d="M43.3125 10.6194L45.2536 3.375L47.638 4.01389C48.1102 4.14042 48.4953 4.33934 48.7933 4.61064C49.098 4.88372 49.2991 5.21061 49.3967 5.59131C49.5027 5.96717 49.4963 6.37673 49.3775 6.82C49.2605 7.25665 49.0613 7.61453 48.7798 7.89365C48.4982 8.17276 48.1606 8.3553 47.7669 8.44126C47.3732 8.52722 46.9402 8.50694 46.468 8.3804L45.1611 8.03022L44.39 10.9081L43.3125 10.6194ZM45.419 7.0676L46.7259 7.41779C47.0984 7.51759 47.4236 7.48773 47.7016 7.32821C47.988 7.16386 48.1808 6.89644 48.2801 6.52595C48.3812 6.14884 48.3479 5.82083 48.1802 5.54191C48.0193 5.26478 47.7525 5.07631 47.3801 4.97651L46.0732 4.62632L45.419 7.0676Z" fill="#C2983D"/>
<path d="M49.5 12.6827L53.25 6.1875L57.4719 8.625L56.9787 9.47916L53.8 7.64393L52.7367 9.48572L55.5709 11.1221L55.0829 11.9673L52.2486 10.331L51.0363 12.4308L54.215 14.266L53.7219 15.1202L49.5 12.6827Z" fill="#C2983D"/>
<path d="M55.6875 16.7408L60.9908 11.4375L62.6812 13.1279C63.0207 13.4674 63.2506 13.828 63.3708 14.2098C63.4958 14.5867 63.511 14.9603 63.4163 15.3305C63.3266 15.7057 63.1243 16.0507 62.8095 16.3655C62.4559 16.7191 62.0549 16.9331 61.6063 17.0076C61.1676 17.0822 60.7375 17.0154 60.316 16.807L59.1346 20.1879L58.2267 19.28L59.4244 16.1189L58.6641 15.3586L56.4847 17.538L55.6875 16.7408ZM59.3543 14.6684L60.2475 15.5616C60.5132 15.8273 60.8023 15.9614 61.1147 15.9639C61.432 15.9615 61.7214 15.8296 61.983 15.5681C62.2542 15.2968 62.3886 15.005 62.3861 14.6926C62.3836 14.3801 62.2495 14.091 61.9837 13.8253L61.0906 12.9321L59.3543 14.6684Z" fill="#C2983D"/>
<path d="M13.3706 62.7364C13.0088 62.3745 12.7548 62.0076 12.6086 61.6354C12.4671 61.2586 12.4314 60.8934 12.5015 60.5397C12.5763 60.1813 12.7619 59.8539 13.0585 59.5573L13.8433 60.3421C13.6079 60.5775 13.5075 60.849 13.5421 61.1566C13.5814 61.4596 13.7527 61.7626 14.0558 62.0658C14.3394 62.3494 14.6278 62.506 14.921 62.5355C15.2142 62.565 15.4761 62.4645 15.7068 62.2338C15.8998 62.0408 16.0107 61.8174 16.0395 61.5637C16.0731 61.3149 16.0132 61.0619 15.8596 60.8048L15.3755 59.9394C15.0926 59.4399 14.9731 58.9532 15.0168 58.4791C15.0702 58.0052 15.2782 57.587 15.6407 57.2245C15.9231 56.942 16.2363 56.7609 16.5802 56.6811C16.924 56.6012 17.277 56.6247 17.6392 56.7515C18.0014 56.8783 18.3487 57.1079 18.6812 57.4404C19.1702 57.9294 19.4342 58.4476 19.4734 58.9952C19.5174 59.5477 19.3277 60.0406 18.9042 60.4739L18.1121 59.6818C18.338 59.4558 18.4388 59.2035 18.4143 58.9248C18.3995 58.6463 18.2576 58.3726 17.9886 58.1037C17.7295 57.8445 17.4654 57.7028 17.1963 57.6785C16.9319 57.6495 16.6914 57.7433 16.4749 57.9599C16.2818 58.1529 16.1685 58.3738 16.1348 58.6226C16.1061 58.8763 16.1661 59.1341 16.315 59.3959L16.7994 60.2757C17.087 60.7705 17.2041 61.2548 17.1507 61.7287C17.0973 62.2026 16.887 62.6231 16.5198 62.9903C16.2326 63.2775 15.9075 63.4608 15.5444 63.5403C15.1861 63.615 14.8186 63.5865 14.4419 63.4546C14.07 63.3181 13.7129 63.0786 13.3706 62.7364Z" fill="#C2983D"/>
<path d="M19.3609 67.3389C18.926 67.0878 18.5902 66.7977 18.3537 66.4687C18.1269 66.1377 18.0072 65.7837 17.9945 65.4069C17.9915 65.0279 18.0983 64.6508 18.315 64.2756L19.935 61.4696C20.155 61.0886 20.4282 60.8075 20.7545 60.6264C21.0872 60.449 21.4519 60.3786 21.8487 60.4152C22.2552 60.4498 22.676 60.5926 23.1109 60.8438C23.5459 61.0949 23.8768 61.386 24.1036 61.7171C24.3401 62.0461 24.4615 62.3971 24.4678 62.7703C24.4805 63.1471 24.3785 63.5232 24.1619 63.8985L22.5369 66.7131C22.3202 67.0883 22.0439 67.3676 21.7078 67.5508C21.3815 67.7319 21.0151 67.8051 20.6086 67.7706C20.2118 67.734 19.7959 67.5901 19.3609 67.3389ZM19.8409 66.5076C20.1928 66.7107 20.5082 66.7773 20.7873 66.7075C21.0762 66.6357 21.3139 66.4381 21.5006 66.1148L23.1206 63.3088C23.3106 62.9797 23.3628 62.6751 23.2773 62.3947C23.1982 62.1181 22.9828 61.8783 22.6309 61.6751C22.2855 61.4757 21.97 61.409 21.6845 61.4751C21.399 61.5412 21.1613 61.7388 20.9713 62.0679L19.3513 64.8738C19.1646 65.1972 19.1124 65.5019 19.1945 65.7879C19.28 66.0683 19.4955 66.3081 19.8409 66.5076Z" fill="#C2983D"/>
<path d="M24.1875 69.8694L26.1286 62.625L30.8375 63.8867L30.572 64.8778L26.9843 63.9164L26.4054 66.0769L29.7155 66.9638L29.4499 67.9549L26.1612 67.0737L25.33 70.1756L24.1875 69.8694Z" fill="#C2983D"/>
<path d="M32.9482 71.931L33.5124 65.4816L31.6108 65.3152L31.7002 64.2931L36.5567 64.718L36.4673 65.7401L34.5657 65.5737L34.0014 72.0231L32.9482 71.931Z" fill="#C2983D"/>
<path d="M40.0237 72.138L38.6824 64.7267L39.5266 64.6529L40.4223 69.9786C40.4459 70.1141 40.4677 70.2634 40.4878 70.4267C40.5138 70.5894 40.5365 70.749 40.556 70.9054C40.5814 71.0613 40.5991 71.1973 40.6092 71.3133C40.6107 71.1963 40.6104 71.0588 40.6082 70.9009C40.6061 70.7429 40.6037 70.5815 40.601 70.4168C40.6041 70.2515 40.6083 70.0999 40.6138 69.9619L40.6929 64.5508L41.5632 64.4747L42.5459 69.7928C42.5695 69.9283 42.5942 70.0774 42.6201 70.2401C42.6519 70.4024 42.6833 70.5612 42.7144 70.7166C42.7456 70.872 42.7691 71.0074 42.7851 71.1229C42.7807 71.0064 42.7746 70.8695 42.7667 70.712C42.7645 70.5541 42.7621 70.3927 42.7594 70.2279C42.7567 70.0632 42.7551 69.912 42.7548 69.7746L42.7208 64.3734L43.5389 64.3018L43.4789 71.8357L42.391 71.9309L41.402 66.5411C41.3778 66.3988 41.3531 66.2497 41.3278 66.0938C41.3018 65.9311 41.2765 65.7752 41.2518 65.6261C41.2264 65.4701 41.2035 65.3415 41.1829 65.2402C41.1861 65.343 41.1887 65.4734 41.1908 65.6314C41.1924 65.7825 41.1945 65.9405 41.1972 66.1052C41.1993 66.2632 41.198 66.4146 41.1931 66.5594L41.1203 72.0421L40.0237 72.138Z" fill="#C2983D"/>
<path d="M45.8161 71.1312L45.579 63.4302L46.8799 63.0816L50.525 69.8694L49.5265 70.137L48.6314 68.4091L46.735 68.9172L46.8239 70.8612L45.8161 71.1312ZM46.6816 67.9849L48.2024 67.5774L47.1832 65.6062C47.0046 65.257 46.8514 64.9541 46.7238 64.6976C46.6004 64.4328 46.5163 64.2533 46.4714 64.1589C46.4797 64.2631 46.4966 64.4607 46.5222 64.7516C46.546 65.036 46.5639 65.3715 46.5759 65.7583L46.6816 67.9849Z" fill="#C2983D"/>
<path d="M53.0625 68.7452L49.3125 62.25L51.3828 61.0547C51.7986 60.8146 52.2065 60.6859 52.6063 60.6686C53.0027 60.6454 53.3675 60.7274 53.7006 60.9147C54.0398 61.0985 54.3207 61.3832 54.5433 61.7688C54.7933 62.2018 54.8962 62.6446 54.8521 63.0971C54.8107 63.5402 54.6347 63.9384 54.3243 64.2916L57.2844 66.3077L56.1724 66.9497L53.4289 64.9746L52.4978 65.5122L54.0389 68.1815L53.0625 68.7452ZM52.0098 64.667L53.1036 64.0354C53.4291 63.8475 53.6335 63.603 53.7167 63.3018C53.7966 62.9947 53.744 62.681 53.5591 62.3607C53.3673 62.0285 53.1202 61.8232 52.8178 61.7447C52.5153 61.6663 52.2014 61.721 51.8759 61.9089L50.782 62.5405L52.0098 64.667Z" fill="#C2983D"/>
<path d="M59.8658 64.4379L54.5625 59.1346L58.0096 55.6875L58.7071 56.3849L56.1117 58.9803L57.6155 60.4841L59.9296 58.17L60.6198 58.8601L58.3056 61.1743L60.0201 62.8888L62.6155 60.2934L63.3129 60.9908L59.8658 64.4379Z" fill="#C2983D"/>
<path d="M30.1954 42.3897C29.3337 42.3897 28.4228 42.2731 27.4627 42.0399C26.5272 41.8279 25.6901 41.4675 24.9516 40.9588C24.2376 40.45 23.7575 39.7716 23.5114 38.9236C23.4867 38.8176 23.4621 38.701 23.4375 38.5738C23.4375 38.4466 23.4375 38.3194 23.4375 38.1922C23.4375 37.5351 23.6098 36.8991 23.9545 36.2843C24.2992 35.6695 24.7177 35.2031 25.2101 34.8851H25.247C25.2962 34.8851 25.3578 34.9381 25.4316 35.0441C25.5301 35.1289 25.5301 35.1925 25.4316 35.2349C25.1854 35.4469 25.0008 35.6907 24.8777 35.9663C24.7792 36.2207 24.73 36.4963 24.73 36.7931C24.73 37.1959 24.8039 37.6093 24.9516 38.0332C25.1239 38.436 25.3332 38.7858 25.5794 39.0826C26.1948 39.8246 27.0442 40.4182 28.1274 40.8634C29.2353 41.2873 30.3185 41.4993 31.3771 41.4993C32.8296 41.4993 33.9498 41.1283 34.7376 40.3864C35.55 39.6444 35.9562 38.7328 35.9562 37.6517C35.9562 36.9945 35.8085 36.3373 35.5131 35.6801C35.1192 34.7685 34.5899 33.8782 33.9252 33.009C33.2851 32.1186 32.6942 31.2495 32.1526 30.4015C31.6849 29.6383 31.451 28.8645 31.451 28.0802C31.451 27.2534 31.7464 26.4584 32.3373 25.6952C32.9281 25.0169 33.7036 24.4763 34.6638 24.0735C35.6485 23.6495 36.6456 23.4375 37.655 23.4375C38.3443 23.4375 39.009 23.5435 39.6491 23.7555C40.2892 23.9675 40.8677 24.3173 41.3847 24.8049C41.5324 24.9957 41.6063 25.2394 41.6063 25.5362C41.6063 25.9602 41.5078 26.2888 41.3109 26.522C41.0893 26.7976 40.8431 27.158 40.5723 27.6032C40.3015 28.0484 40.1415 28.3557 40.0922 28.5253C40.043 28.5465 39.9199 28.5889 39.7229 28.6525C39.5506 28.6949 39.4398 28.6843 39.3906 28.6207C39.4891 28.4511 39.6245 28.1438 39.7968 27.6986C39.9691 27.2534 40.0553 26.8506 40.0553 26.4902C40.0553 26.257 40.043 26.0026 40.0184 25.727C40.0184 25.4302 39.8584 25.1758 39.5383 24.9639C39.2429 24.7307 38.8613 24.5293 38.3935 24.3597C37.9258 24.1901 37.3595 24.1053 36.6948 24.1053C35.3408 24.1053 34.3068 24.4445 33.5928 25.1228C32.8789 25.8012 32.5219 26.5432 32.5219 27.3488C32.5219 27.7516 32.6204 28.1544 32.8173 28.5571C33.1866 29.3203 33.7036 30.0411 34.3683 30.7195C35.033 31.3979 35.6854 32.0974 36.3255 32.8182C36.9902 33.5178 37.5072 34.281 37.8765 35.1077C38.1227 35.6589 38.2458 36.2207 38.2458 36.7931C38.2458 37.6199 37.9996 38.3724 37.5072 39.0508C37.0395 39.7292 36.3994 40.3228 35.587 40.8316C34.7992 41.3191 33.9375 41.7007 33.002 41.9763C32.0664 42.2519 31.1309 42.3897 30.1954 42.3897Z" fill="#C2983D"/>
<path d="M40.1516 51.5625C39.2899 51.5625 38.379 51.4459 37.4189 51.2127C36.4834 51.0007 35.6463 50.6403 34.9078 50.1315C34.1938 49.6228 33.7137 48.9444 33.4676 48.0964C33.4429 47.9904 33.4183 47.8738 33.3937 47.7466C33.3937 47.6194 33.3937 47.4922 33.3937 47.365C33.3937 46.7079 33.566 46.0719 33.9107 45.4571C34.2554 44.8423 34.6739 44.3759 35.1663 44.0579H35.2032C35.2524 44.0579 35.314 44.1109 35.3878 44.2169C35.4863 44.3017 35.4863 44.3653 35.3878 44.4077C35.1416 44.6197 34.957 44.8635 34.8339 45.1391C34.7354 45.3935 34.6862 45.6691 34.6862 45.9659C34.6862 46.3687 34.7601 46.7821 34.9078 47.206C35.0801 47.6088 35.2894 47.9586 35.5356 48.2554C36.151 48.9974 37.0004 49.591 38.0836 50.0361C39.1915 50.4601 40.2747 50.6721 41.3333 50.6721C42.7858 50.6721 43.906 50.3011 44.6938 49.5592C45.5062 48.8172 45.9124 47.9056 45.9124 46.8244C45.9124 46.1673 45.7647 45.5101 45.4693 44.8529C45.0754 43.9413 44.5461 43.051 43.8814 42.1818C43.2413 41.2914 42.6504 40.4222 42.1088 39.5743C41.6411 38.8111 41.4072 38.0373 41.4072 37.2529C41.4072 36.4262 41.7026 35.6312 42.2935 34.868C42.8843 34.1896 43.6598 33.6491 44.62 33.2463C45.6047 32.8223 46.6018 32.6103 47.6112 32.6103C48.3005 32.6103 48.9652 32.7163 49.6053 32.9283C50.2454 33.1403 50.8239 33.4901 51.3409 33.9776C51.4886 34.1684 51.5625 34.4122 51.5625 34.709C51.5625 35.133 51.464 35.4616 51.2671 35.6948C51.0455 35.9704 50.7993 36.3308 50.5285 36.776C50.2577 37.2211 50.0977 37.5285 50.0484 37.6981C49.9992 37.7193 49.8761 37.7617 49.6791 37.8253C49.5068 37.8677 49.396 37.8571 49.3468 37.7935C49.4453 37.6239 49.5807 37.3165 49.753 36.8714C49.9253 36.4262 50.0115 36.0234 50.0115 35.663C50.0115 35.4298 49.9992 35.1754 49.9746 34.8998C49.9746 34.603 49.8146 34.3486 49.4945 34.1366C49.1991 33.9035 48.8175 33.7021 48.3497 33.5325C47.882 33.3629 47.3157 33.2781 46.651 33.2781C45.297 33.2781 44.263 33.6173 43.549 34.2956C42.8351 34.974 42.4781 35.716 42.4781 36.5216C42.4781 36.9244 42.5766 37.3271 42.7735 37.7299C43.1428 38.4931 43.6598 39.2139 44.3245 39.8923C44.9892 40.5706 45.6416 41.2702 46.2817 41.991C46.9464 42.6906 47.4634 43.4538 47.8327 44.2805C48.0789 44.8317 48.202 45.3935 48.202 45.9659C48.202 46.7926 47.9558 47.5452 47.4634 48.2236C46.9957 48.902 46.3556 49.4956 45.5432 50.0044C44.7554 50.4919 43.8937 50.8735 42.9582 51.1491C42.0226 51.4247 41.0871 51.5625 40.1516 51.5625Z" fill="#C2983D"/>
</svg>
