<svg width="50" height="25" viewBox="0 0 50 25" fill="none" xmlns="http://www.w3.org/2000/svg">
<path d="M22.932 0.975713C24.9147 0.341095 27.0461 0.341095 29.0288 0.975713L33.5653 2.42773C36.0371 3.21887 38.1044 4.93995 39.3305 7.22731L39.6244 7.77555C41.2063 10.7266 41.2063 14.2734 39.6244 17.2245L39.3305 17.7727C38.1044 20.06 36.037 21.7811 33.5653 22.5723L29.0288 24.0243C27.0461 24.6589 24.9147 24.6589 22.932 24.0243L18.3955 22.5723C15.9238 21.7811 13.8565 20.06 12.6303 17.7727L12.3365 17.2245C10.7546 14.2734 10.7546 10.7266 12.3365 7.77555L12.6303 7.22731C13.8564 4.93995 15.9238 3.21887 18.3955 2.42773L22.932 0.975713Z" fill="#D9D9D9"/>
<ellipse cx="25" cy="19.5" rx="25" ry="5.5" fill="#D9D9D9"/>
<path d="M13.3452 18.5524C13.5581 18.6778 13.6632 18.9728 13.642 19.3719C13.621 19.7678 13.4758 20.2503 13.2081 20.7232C12.9404 21.1962 12.6034 21.5657 12.2778 21.7821C11.9494 22.0004 11.6465 22.0551 11.4335 21.9297C11.2206 21.8043 11.1156 21.5094 11.1367 21.1102C11.1577 20.7143 11.3029 20.2319 11.5706 19.7589C11.8383 19.2859 12.1753 18.9164 12.501 18.7C12.8293 18.4817 13.1323 18.427 13.3452 18.5524Z" fill="#D5FF1C" stroke="black" stroke-width="0.1"/>
<path d="M26 20.0498C26.247 20.0498 26.4838 20.2518 26.6621 20.6084C26.8389 20.962 26.9502 21.4538 26.9502 22C26.9502 22.5462 26.8389 23.038 26.6621 23.3916C26.4838 23.7482 26.247 23.9502 26 23.9502C25.753 23.9502 25.5162 23.7482 25.3379 23.3916C25.1611 23.038 25.0498 22.5462 25.0498 22C25.0498 21.4538 25.1611 20.962 25.3379 20.6084C25.5162 20.2518 25.753 20.0498 26 20.0498Z" fill="#D5FF1C" stroke="black" stroke-width="0.1"/>
<path d="M39.1125 18.3229C39.3255 18.1975 39.6285 18.2522 39.9568 18.4705C40.2824 18.687 40.6194 19.0564 40.8871 19.5294C41.1549 20.0024 41.3 20.4848 41.321 20.8807C41.3422 21.2799 41.2372 21.5748 41.0242 21.7002C40.8113 21.8256 40.5083 21.7709 40.18 21.5527C39.8543 21.3362 39.5173 20.9667 39.2496 20.4937C38.9819 20.0208 38.8367 19.5383 38.8157 19.1424C38.7946 18.7433 38.8996 18.4483 39.1125 18.3229Z" fill="#D5FF1C" stroke="black" stroke-width="0.1"/>
<path d="M31.0001 9C31.0001 11.7614 28.7615 14 26.0001 14C23.2386 14 21.0001 11.7614 21.0001 9C21.0001 6.23858 23.2386 4 26.0001 4C28.7615 4 31.0001 6.23858 31.0001 9Z" fill="#C3DFF0"/>
</svg>
