<svg width="140" height="68" viewBox="0 0 140 68" fill="none" xmlns="http://www.w3.org/2000/svg">
<path d="M69.0725 0.896262C70.9805 0.312135 73.0195 0.312136 74.9275 0.896262L100.692 8.78418C103.153 9.53779 105.229 11.2117 106.488 13.4574L115.26 29.1113C116.962 32.1482 116.962 35.8518 115.26 38.8887L106.488 54.5426C105.229 56.7883 103.153 58.4622 100.692 59.2158L74.9275 67.1037C73.0195 67.6879 70.9805 67.6879 69.0725 67.1037L43.3083 59.2158C40.8468 58.4622 38.7707 56.7883 37.5122 54.5426L28.7397 38.8887C27.0377 35.8518 27.0377 32.1482 28.7397 29.1113L37.5122 13.4574C38.7707 11.2117 40.8468 9.53779 43.3083 8.78418L69.0725 0.896262Z" fill="#D9D9D9"/>
<ellipse cx="70" cy="52.5" rx="70" ry="15.5" fill="#D9D9D9"/>
<path d="M9.87948 49.2779C10.0632 49.4617 10.1574 49.7232 10.1654 50.0444C10.1733 50.3659 10.0944 50.7444 9.93611 51.1562C9.61926 51.98 8.98663 52.9288 8.11172 53.8037C7.2368 54.6786 6.28803 55.3112 5.46421 55.6281C5.05243 55.7864 4.67396 55.8653 4.35245 55.8573C4.03119 55.8494 3.76971 55.7552 3.58596 55.5714C3.40221 55.3877 3.30804 55.1262 3.30008 54.805C3.29212 54.4834 3.37101 54.105 3.52933 53.6932C3.84619 52.8694 4.47881 51.9206 5.35373 51.0457C6.22864 50.1708 7.17741 49.5382 8.00123 49.2213C8.41301 49.063 8.79148 48.9841 9.11299 48.992C9.43426 49 9.69574 49.0942 9.87948 49.2779Z" fill="#D5FF1C" stroke="black" stroke-width="0.1"/>
<path d="M53.5237 58.3963C53.7796 58.4415 54.0067 58.6016 54.1975 58.8602C54.3885 59.119 54.5409 59.4743 54.6474 59.9024C54.8604 60.759 54.8864 61.8991 54.6715 63.1176C54.4567 64.3361 54.0423 65.3985 53.5492 66.1306C53.3027 66.4965 53.038 66.7782 52.77 66.9561C52.5023 67.1338 52.2341 67.2066 51.9782 67.1615C51.7223 67.1164 51.4951 66.9562 51.3044 66.6976C51.1134 66.4388 50.961 66.0835 50.8545 65.6554C50.6415 64.7989 50.6155 63.6588 50.8304 62.4403C51.0452 61.2218 51.4596 60.1594 51.9527 59.4273C52.1992 59.0614 52.4639 58.7797 52.7319 58.6018C52.9996 58.4241 53.2678 58.3512 53.5237 58.3963Z" fill="#D5FF1C" stroke="black" stroke-width="0.1"/>
<path d="M87.9783 57.3963C88.2342 57.3512 88.5024 57.424 88.7701 57.6018C89.038 57.7797 89.3028 58.0614 89.5493 58.4273C90.0424 59.1593 90.4567 60.2217 90.6716 61.4403C90.8865 62.6588 90.8605 63.7988 90.6475 64.6554C90.541 65.0835 90.3886 65.4388 90.1976 65.6976C90.0068 65.9562 89.7797 66.1164 89.5238 66.1615C89.2679 66.2066 88.9997 66.1338 88.732 65.956C88.464 65.7782 88.1992 65.4964 87.9527 65.1306C87.4597 64.3985 87.0453 63.3361 86.8305 62.1176C86.6156 60.899 86.6416 59.759 86.8546 58.9024C86.9611 58.4743 87.1135 58.119 87.3044 57.8602C87.4952 57.6016 87.7224 57.4415 87.9783 57.3963Z" fill="#D5FF1C" stroke="black" stroke-width="0.1"/>
<path d="M21.5521 54.131C21.77 54.2726 21.9165 54.5088 21.9911 54.8214C22.0657 55.1342 22.0672 55.5208 21.998 55.9565C21.8593 56.8282 21.4378 57.8877 20.7639 58.9254C20.09 59.9632 19.2935 60.7792 18.5536 61.2604C18.1837 61.5009 17.8299 61.6568 17.5138 61.7158C17.1979 61.7748 16.9225 61.7371 16.7046 61.5955C16.4866 61.454 16.3402 61.2178 16.2656 60.9052C16.1909 60.5924 16.1894 60.2058 16.2587 59.7701C16.3973 58.8984 16.8189 57.8388 17.4927 56.8011C18.1666 55.7634 18.9632 54.9474 19.7031 54.4662C20.073 54.2257 20.4267 54.0698 20.7429 54.0108C21.0588 53.9518 21.3341 53.9895 21.5521 54.131Z" fill="#D5FF1C" stroke="black" stroke-width="0.1"/>
<path d="M37.2073 56.7954C37.4482 56.8927 37.6371 57.0966 37.7699 57.3892C37.9029 57.6821 37.9781 58.0613 37.9933 58.5022C38.0235 59.3843 37.8119 60.5049 37.3484 61.6521C36.8849 62.7993 36.2587 63.7524 35.6242 64.3659C35.307 64.6725 34.9895 64.8931 34.6904 65.0114C34.3916 65.1295 34.1141 65.145 33.8731 65.0477C33.6322 64.9503 33.4434 64.7464 33.3105 64.4538C33.1775 64.161 33.1023 63.7818 33.0871 63.3409C33.0569 62.4587 33.2685 61.3382 33.732 60.191C34.1955 59.0438 34.8217 58.0907 35.4562 57.4772C35.7734 57.1705 36.091 56.95 36.39 56.8317C36.6889 56.7135 36.9664 56.698 37.2073 56.7954Z" fill="#D5FF1C" stroke="black" stroke-width="0.1"/>
<path d="M72 58.0498C72.2599 58.0498 72.5113 58.1681 72.7441 58.3896C72.9771 58.6114 73.1889 58.9348 73.3682 59.3379C73.7266 60.1445 73.9502 61.2627 73.9502 62.5C73.9502 63.7373 73.7266 64.8555 73.3682 65.6621C73.1889 66.0652 72.9771 66.3886 72.7441 66.6104C72.5113 66.8319 72.2599 66.9502 72 66.9502C71.7401 66.9502 71.4887 66.8319 71.2559 66.6104C71.0229 66.3886 70.8111 66.0652 70.6318 65.6621C70.2734 64.8555 70.0498 63.7373 70.0498 62.5C70.0498 61.2627 70.2734 60.1445 70.6318 59.3379C70.8111 58.9348 71.0229 58.6114 71.2559 58.3896C71.4887 58.1681 71.7401 58.0498 72 58.0498Z" fill="#D5FF1C" stroke="black" stroke-width="0.1"/>
<path d="M104.873 55.7954C105.114 55.698 105.391 55.7135 105.69 55.8317C105.989 55.95 106.307 56.1705 106.624 56.4771C107.259 57.0907 107.885 58.0437 108.348 59.191C108.812 60.3382 109.023 61.4587 108.993 62.3409C108.978 62.7818 108.903 63.161 108.77 63.4538C108.637 63.7464 108.448 63.9503 108.207 64.0477C107.966 64.145 107.689 64.1295 107.39 64.0113C107.091 63.893 106.773 63.6725 106.456 63.3659C105.822 62.7524 105.195 61.7993 104.732 60.6521C104.268 59.5049 104.057 58.3843 104.087 57.5022C104.102 57.0613 104.177 56.6821 104.31 56.3892C104.443 56.0966 104.632 55.8927 104.873 55.7954Z" fill="#D5FF1C" stroke="black" stroke-width="0.1"/>
<path d="M118.704 53.1311C118.922 52.9896 119.198 52.9518 119.514 53.0108C119.83 53.0699 120.184 53.2257 120.553 53.4662C121.293 53.9474 122.09 54.7635 122.764 55.8012C123.438 56.8389 123.859 57.8984 123.998 58.7701C124.067 59.2058 124.066 59.5924 123.991 59.9053C123.916 60.2179 123.77 60.454 123.552 60.5956C123.334 60.7371 123.059 60.7748 122.743 60.7158C122.427 60.6568 122.073 60.5009 121.703 60.2605C120.963 59.7792 120.167 58.9632 119.493 57.9255C118.819 56.8878 118.397 55.8282 118.259 54.9565C118.189 54.5208 118.191 54.1342 118.265 53.8214C118.34 53.5088 118.487 53.2726 118.704 53.1311Z" fill="#D5FF1C" stroke="black" stroke-width="0.1"/>
<path d="M128.586 48.2779C128.77 48.0941 129.031 47.9999 129.353 47.992C129.674 47.984 130.053 48.0629 130.464 48.2212C131.288 48.5381 132.237 49.1707 133.112 50.0456C133.987 50.9205 134.619 51.8693 134.936 52.6931C135.095 53.1049 135.174 53.4834 135.166 53.8049C135.158 54.1262 135.063 54.3876 134.88 54.5714C134.696 54.7551 134.434 54.8493 134.113 54.8573C133.792 54.8652 133.413 54.7863 133.001 54.628C132.178 54.3112 131.229 53.6785 130.354 52.8036C129.479 51.9287 128.846 50.9799 128.53 50.1561C128.371 49.7443 128.292 49.3659 128.3 49.0444C128.308 48.7231 128.402 48.4616 128.586 48.2779Z" fill="#D5FF1C" stroke="black" stroke-width="0.1"/>
<path opacity="0.6" d="M99.3665 15.2109C100.344 15.1599 101.282 15.6087 101.813 16.4248C103.314 18.7339 106.216 23.5964 107.177 28.0146C107.658 30.2245 107.648 32.2999 106.76 33.8877C105.877 35.4673 104.105 36.5965 100.989 36.876C86.1027 38.2105 60.512 38.0775 45.01 36.875C41.753 36.6224 39.9065 35.503 38.9895 33.9248C38.0683 32.3393 38.0643 30.2571 38.5715 28.0361C39.5858 23.5955 42.6213 18.6984 44.1731 16.3975C44.7133 15.5964 45.6478 15.1661 46.6184 15.2246C67.1019 16.46 79.1733 16.2656 99.3665 15.2109Z" fill="#B5E3FF" stroke="black" stroke-width="0.25"/>
<rect x="56" y="23.1204" width="1" height="9" fill="#D9D9D9"/>
<rect x="56.707" y="24.1204" width="4" height="1" transform="rotate(45 56.707 24.1204)" fill="#D9D9D9"/>
<rect x="56.5356" y="24.8275" width="4" height="1" transform="rotate(135 56.5356 24.8275)" fill="#D9D9D9"/>
<rect x="56.043" y="31.1215" width="1" height="5" transform="rotate(13 56.043 31.1215)" fill="#D9D9D9"/>
<rect x="55.8779" y="31.365" width="1" height="5" transform="rotate(-14 55.8779 31.365)" fill="#D9D9D9"/>
<path d="M56.6216 18.0254C56.6438 18.0254 56.6754 18.0424 56.7134 18.0908C56.7504 18.1381 56.7902 18.2099 56.8296 18.3047C56.9082 18.4939 56.9855 18.7721 57.0464 19.124C57.1681 19.828 57.2239 20.8253 57.0972 21.9971C56.9701 23.1717 56.9136 24.1734 56.855 24.8789C56.8256 25.2321 56.796 25.5104 56.7563 25.7002C56.7365 25.7953 56.7144 25.8665 56.6899 25.9131C56.665 25.9604 56.6415 25.9746 56.6216 25.9746C56.6021 25.9744 56.5767 25.9584 56.5483 25.9062C56.5208 25.8555 56.4947 25.7787 56.4702 25.6777C56.4213 25.476 56.3801 25.1829 56.3433 24.8203C56.2695 24.0954 56.2137 23.0958 56.147 21.998C56.0803 20.9006 56.0506 19.9062 56.1147 19.1846C56.1468 18.8234 56.2028 18.5326 56.2876 18.332C56.3724 18.1317 56.4824 18.0292 56.6216 18.0254Z" fill="#D9D9D9" stroke="black" stroke-width="0.05"/>
<path d="M56.2491 20.1722C56.2758 20.1696 56.3078 20.1642 56.3292 20.1721C56.3855 20.1931 56.3667 20.2603 56.3628 20.2937C56.3619 20.3015 56.343 20.2952 56.3335 20.2899C56.3162 20.2801 56.308 20.2579 56.3 20.2339C56.2956 20.2209 56.2973 20.2046 56.3012 20.2017C56.3324 20.179 56.356 20.2603 56.3694 20.2924C56.3709 20.2959 56.3563 20.2899 56.3482 20.2819C56.3401 20.2739 56.3348 20.2633 56.3334 20.2512C56.3305 20.2261 56.3426 20.2044 56.3546 20.1897C56.3606 20.1823 56.3693 20.1777 56.3773 20.1802C56.3854 20.1828 56.3933 20.1934 56.3974 20.2041C56.4015 20.2149 56.4015 20.2255 56.3949 20.2389C56.3792 20.2706 56.3508 20.2898 56.3295 20.2978C56.3191 20.3017 56.3082 20.3005 56.3001 20.2952C56.259 20.2684 56.2652 20.2045 56.2678 20.1764C56.269 20.164 56.2758 20.1563 56.2838 20.1562C56.2918 20.1561 56.3024 20.164 56.3092 20.1761C56.3236 20.2017 56.3213 20.2362 56.3147 20.2629C56.3116 20.2752 56.2948 20.279 56.2774 20.2738C56.2353 20.2612 56.2118 20.2205 56.2024 20.1911C56.1982 20.1777 56.1957 20.1671 56.2063 20.1696C56.2849 20.1881 56.2972 20.2496 56.3013 20.267C56.3026 20.2725 56.2815 20.2659 56.2707 20.2565C56.2497 20.2384 56.2491 20.2045 56.2531 20.1777C56.2548 20.1663 56.265 20.1616 56.2744 20.1589C56.2838 20.1562 56.2944 20.1562 56.3038 20.1628C56.3254 20.1779 56.3373 20.2069 56.3493 20.2295C56.3553 20.2408 56.3534 20.2548 56.3428 20.2537C56.307 20.2499 56.2839 20.2097 56.2746 20.1897C56.2703 20.1804 56.2679 20.1724 56.2692 20.1643C56.2705 20.1563 56.2758 20.1483 56.2825 20.1469C56.2892 20.1454 56.2971 20.1507 56.3025 20.1587C56.3079 20.1668 56.3106 20.1773 56.3093 20.1881C56.308 20.1988 56.3027 20.2094 56.2947 20.2149C56.2867 20.2203 56.2761 20.2203 56.2667 20.215C56.2572 20.2097 56.2493 20.1992 56.2465 20.1884C56.2438 20.1777 56.2464 20.1671 56.2531 20.1616C56.2597 20.1562 56.2703 20.1562 56.2758 20.1641C56.2812 20.1721 56.2812 20.1879 56.2772 20.1988C56.2733 20.2096 56.2653 20.2149 56.2599 20.2083C56.2431 20.1881 56.2465 20.151 56.2412 20.1375C56.236 20.1244 56.2252 20.1721 56.2092 20.1855C56.2017 20.1917 56.1932 20.1935 56.1891 20.1896C56.185 20.1857 56.185 20.1751 56.1876 20.1749C56.1903 20.1748 56.1957 20.1842 56.1957 20.1842C56.1967 20.1689 56.185 20.1429 56.1903 20.1229C56.1925 20.1146 56.2062 20.1161 56.2156 20.1201C56.225 20.124 56.2329 20.132 56.2384 20.1413C56.2438 20.1507 56.2464 20.1613 56.2438 20.1694C56.2412 20.1775 56.2333 20.1828 56.2279 20.1802C56.2139 20.1736 56.2171 20.1403 56.2263 20.1162C56.2308 20.1047 56.2541 20.1081 56.265 20.112C56.2758 20.116 56.2785 20.1239 56.2799 20.1333C56.2827 20.1531 56.2759 20.1774 56.2639 20.1988C56.255 20.2147 56.2332 20.215 56.2159 20.2123C56.2052 20.2107 56.1959 20.1939 56.1904 20.1778C56.185 20.1617 56.185 20.1432 56.1929 20.131C56.2009 20.1188 56.2167 20.1135 56.2342 20.1108C56.2516 20.1081 56.2702 20.1081 56.2823 20.116C56.3071 20.1321 56.3053 20.1668 56.3026 20.1894C56.3012 20.2017 56.2947 20.2147 56.288 20.2229C56.2813 20.231 56.2734 20.2336 56.264 20.2244C56.238 20.1989 56.2331 20.1563 56.2397 20.1257C56.2431 20.1098 56.2596 20.0976 56.2704 20.0895C56.2811 20.0814 56.2891 20.0787 56.2985 20.0813C56.3078 20.0839 56.3184 20.0919 56.3252 20.1026C56.339 20.1243 56.3347 20.1587 56.328 20.192C56.3227 20.2186 56.2974 20.2389 56.2681 20.2563C56.2551 20.264 56.244 20.2657 56.2333 20.2644C56.2225 20.2631 56.2119 20.2579 56.2052 20.2472C56.1901 20.2234 56.193 20.1937 56.197 20.1724C56.1991 20.1611 56.2089 20.151 56.2262 20.1456C56.2435 20.1401 56.27 20.1401 56.2863 20.1454C56.3025 20.1507 56.3078 20.1613 56.3106 20.1721C56.3211 20.2136 56.2973 20.2496 56.2787 20.271C56.2698 20.2811 56.2548 20.2818 56.24 20.2752C56.2053 20.2597 56.1904 20.2205 56.1864 20.1885C56.1843 20.1724 56.185 20.1565 56.1903 20.1417C56.2011 20.1114 56.2303 20.0948 56.2596 20.0867C56.2753 20.0824 56.2942 20.084 56.3051 20.088C56.3477 20.1035 56.3293 20.1828 56.328 20.2028C56.3274 20.2123 56.324 20.2202 56.3161 20.219C56.3081 20.2178 56.2948 20.2072 56.288 20.1832C56.2812 20.1592 56.2812 20.1222 56.2865 20.1004C56.2918 20.0787 56.3024 20.0734 56.3118 20.072C56.3212 20.0706 56.3292 20.0733 56.3386 20.0799C56.3994 20.1231 56.3828 20.2283 56.3748 20.2443C56.3656 20.2629 56.3454 20.2737 56.3281 20.2818C56.3193 20.2859 56.3082 20.2845 56.3001 20.2779C56.292 20.2712 56.2867 20.258 56.2839 20.2446C56.2812 20.2312 56.2812 20.2179 56.2905 20.2071C56.3123 20.1817 56.3479 20.1802 56.3679 20.1829C56.3776 20.1842 56.3853 20.1908 56.3894 20.2055C56.3935 20.2201 56.3935 20.2439 56.3882 20.2562C56.3829 20.2684 56.3723 20.2684 56.3616 20.2618C56.3368 20.2465 56.324 20.2125 56.3213 20.1871C56.3203 20.1773 56.3345 20.1749 56.3426 20.1815C56.3629 20.198 56.3614 20.2362 56.3548 20.2656C56.3515 20.2802 56.3349 20.2896 56.3242 20.2964C56.3134 20.3032 56.3054 20.3058 56.2947 20.2979C56.266 20.2767 56.2572 20.2233 56.2638 20.1726C56.2732 20.1002 56.356 20.1028 56.376 20.0961C56.385 20.0931 56.3933 20.0973 56.3987 20.1027C56.4041 20.108 56.4068 20.1159 56.4029 20.1253C56.3989 20.1347 56.3883 20.1453 56.3882 20.152C56.3879 20.1661 56.4122 20.1721 56.4148 20.1895C56.4179 20.2094 56.4042 20.2283 56.3922 20.2496C56.3849 20.2626 56.3776 20.2814 56.3722 20.2552C56.3668 20.2291 56.3641 20.1576 56.3628 20.1512C56.3514 20.0979 56.2868 20.3955 56.3242 20.3301M56.3242 20.3301C56.3521 20.2812 56.2844 20.3222 56.2776 20.3047C56.2651 20.2724 56.2491 20.2979 56.2544 20.2872C56.2628 20.2702 56.2839 20.3165 56.2865 20.3232C56.291 20.3344 56.2812 20.282 56.2852 20.2579C56.2863 20.2511 56.2971 20.2603 56.3025 20.2696C56.3079 20.279 56.3106 20.2896 56.308 20.2845C56.2951 20.2592 56.2892 20.2099 56.2959 20.1777C56.2976 20.1692 56.3157 20.1879 56.3225 20.212C56.3293 20.236 56.3293 20.2678 56.3214 20.2709C56.3135 20.2741 56.2976 20.2476 56.2894 20.2287C56.2812 20.2097 56.2812 20.1992 56.2865 20.1977C56.2918 20.1962 56.3024 20.2041 56.3105 20.2148C56.327 20.2367 56.3293 20.2683 56.328 20.2884C56.3262 20.3151 56.3133 20.2231 56.3212 20.2071C56.325 20.1995 56.345 20.2121 56.3559 20.2215C56.3667 20.2309 56.372 20.2415 56.3747 20.2522C56.3774 20.263 56.3774 20.2736 56.3735 20.2698C56.3552 20.2522 56.3507 20.2151 56.3481 20.1898C56.3468 20.1777 56.3507 20.1671 56.3586 20.1643C56.3666 20.1615 56.3798 20.1668 56.3893 20.1761C56.4085 20.1951 56.4095 20.2467 56.4042 20.3028C56.4021 20.325 56.3883 20.3324 56.3776 20.3312C56.3669 20.33 56.3563 20.3194 56.3482 20.3047C56.3309 20.2733 56.3293 20.2259 56.3346 20.1792C56.337 20.1584 56.3505 20.1458 56.3599 20.1403C56.3693 20.1348 56.3773 20.1374 56.384 20.1454C56.4268 20.196 56.3989 20.287 56.3869 20.323C56.3807 20.3418 56.3617 20.3563 56.343 20.3526C56.2954 20.3431 56.2759 20.2793 56.2679 20.2367C56.2639 20.2154 56.2652 20.194 56.2691 20.1858C56.2745 20.1747 56.3078 20.22 56.3345 20.2734C56.3449 20.2941 56.3401 20.3056 56.3347 20.3045C56.2867 20.294 56.2973 20.2205 56.3012 20.1991C56.3025 20.1924 56.3131 20.1988 56.3212 20.2055C56.3379 20.2194 56.3507 20.2469 56.356 20.2696C56.3579 20.2776 56.3427 20.2418 56.344 20.2284C56.3445 20.2236 56.3585 20.2309 56.3653 20.2403C56.3797 20.2601 56.3774 20.2897 56.3761 20.315C56.3755 20.3272 56.3721 20.3377 56.3642 20.3405C56.3562 20.3433 56.343 20.338 56.3335 20.3208C56.3101 20.2781 56.3133 20.2312 56.3186 20.2151C56.3205 20.2094 56.3345 20.2202 56.3426 20.2309C56.3591 20.2527 56.3614 20.3002 56.3548 20.343C56.3528 20.3558 56.3349 20.3435 56.3242 20.3301ZM56.3242 20.3301C56.3134 20.3167 56.3054 20.3008 56.3066 20.2953C56.3078 20.2898 56.3184 20.2951 56.3265 20.3044C56.3346 20.3137 56.3399 20.327 56.3373 20.3259C56.286 20.3034 56.3053 20.2206 56.3092 20.1832C56.3107 20.1691 56.3211 20.1669 56.3279 20.1695C56.3346 20.1721 56.3399 20.1801 56.3413 20.1895C56.3427 20.1988 56.3401 20.2094 56.3334 20.2162C56.3268 20.223 56.3162 20.2256 56.3053 20.2283" stroke="#FF0000" stroke-width="0.01" stroke-linecap="round"/>
<path d="M56.8987 20.1081C56.8775 20.1693 56.8213 20.239 56.7973 20.259C56.7863 20.2682 56.7786 20.2764 56.7877 20.2514C56.7969 20.2263 56.8233 20.1681 56.8251 20.1659C56.8268 20.1637 56.803 20.2193 56.7907 20.2373C56.7784 20.2554 56.7784 20.2342 56.7798 20.214C56.7843 20.1443 56.8184 20.1162 56.8344 20.1029C56.8419 20.0967 56.8504 20.0948 56.8572 20.1027C56.876 20.1248 56.8747 20.1588 56.868 20.1921C56.8562 20.2513 56.8266 20.2925 56.8133 20.2953C56.7574 20.3068 56.8078 20.1859 56.8291 20.1443C56.8339 20.135 56.8477 20.1349 56.8558 20.1402C56.8991 20.1682 56.872 20.231 56.8627 20.251C56.8578 20.2615 56.8455 20.2684 56.8347 20.2724C56.824 20.2765 56.8134 20.2765 56.804 20.2673C56.7806 20.2443 56.7784 20.2072 56.7798 20.1832C56.7808 20.164 56.7944 20.1457 56.8104 20.1323C56.8169 20.1268 56.8264 20.1348 56.8305 20.1428C56.8391 20.1597 56.8319 20.1855 56.8226 20.2122C56.8122 20.2422 56.7865 20.2578 56.7705 20.2631C56.7629 20.2657 56.7545 20.2579 56.7504 20.242C56.7464 20.226 56.7464 20.1996 56.7516 20.1833C56.7569 20.167 56.7675 20.1617 56.7743 20.1682C56.7936 20.1868 56.7838 20.2256 56.7771 20.2496C56.7741 20.2607 56.7678 20.2684 56.7611 20.2658C56.741 20.2582 56.7383 20.2179 56.7436 20.1806C56.7464 20.1612 56.7595 20.1433 56.7703 20.1311C56.781 20.1189 56.7916 20.1136 56.8023 20.1148C56.8131 20.1161 56.8237 20.124 56.8291 20.1374C56.8413 20.1673 56.824 20.2042 56.804 20.2309C56.7954 20.2424 56.7866 20.247 56.7812 20.2431C56.7402 20.2137 56.7731 20.1457 56.785 20.127C56.7916 20.1166 56.8102 20.1136 56.8237 20.1162C56.8371 20.1187 56.8477 20.1293 56.8545 20.1427C56.8684 20.1701 56.864 20.2016 56.856 20.2256C56.8522 20.237 56.8427 20.2443 56.8334 20.2431C56.824 20.2419 56.8134 20.2313 56.8079 20.2153C56.8025 20.1992 56.8025 20.1781 56.8091 20.1685C56.8157 20.1589 56.8289 20.1615 56.8384 20.1669C56.8479 20.1722 56.8532 20.1801 56.8559 20.1935C56.8586 20.2068 56.8586 20.2254 56.8546 20.2376C56.8507 20.2497 56.8427 20.255 56.8373 20.2485C56.8205 20.2282 56.8265 20.1832 56.8305 20.1485C56.8321 20.1344 56.8424 20.1296 56.8465 20.1454C56.8598 20.1967 56.848 20.247 56.836 20.2736C56.8176 20.3146 56.7865 20.338 56.7745 20.338C56.7132 20.3384 56.8049 20.1755 56.8864 20.079C56.8984 20.0648 56.904 20.0759 56.9054 20.0893C56.9146 20.1799 56.8667 20.2737 56.8534 20.2832C56.7935 20.3256 56.8851 20.1033 56.9253 20.0627C56.9798 20.0077 56.8961 20.1855 56.8761 20.2042C56.8682 20.2117 56.8588 20.2071 56.8534 20.1991C56.848 20.1911 56.8453 20.1779 56.8466 20.1645C56.8479 20.151 56.8532 20.1378 56.8612 20.1336C56.8692 20.1295 56.8798 20.1348 56.8866 20.1428C56.9 20.1587 56.8987 20.1882 56.8934 20.2175C56.8909 20.2318 56.8775 20.2416 56.8681 20.2404C56.8587 20.2392 56.8508 20.226 56.8467 20.2099C56.8381 20.1762 56.8479 20.1351 56.8599 20.1004C56.8648 20.0861 56.8745 20.0815 56.8799 20.0973C56.8972 20.1479 56.8642 20.2227 56.8175 20.2775C56.7989 20.2993 56.784 20.3032 56.7733 20.3072C56.7625 20.3113 56.7545 20.3139 56.7478 20.302C56.728 20.2671 56.7303 20.2047 56.7396 20.1486C56.7438 20.123 56.7674 20.1085 56.7809 20.1016C56.7944 20.0947 56.8023 20.0974 56.8091 20.1054C56.8464 20.1496 56.8132 20.2149 56.8012 20.2336C56.7956 20.2425 56.7866 20.247 56.7772 20.2392C56.7502 20.2165 56.7464 20.1751 56.7516 20.1498C56.7543 20.1368 56.7675 20.1271 56.7783 20.1216C56.789 20.1162 56.7996 20.1162 56.8077 20.1214C56.8158 20.1267 56.8211 20.1373 56.8225 20.1467C56.8239 20.1562 56.8212 20.1641 56.8159 20.1708C56.8106 20.1776 56.8026 20.1829 56.7933 20.175C56.7663 20.1524 56.7624 20.103 56.7664 20.0696C56.7679 20.0568 56.7783 20.0547 56.7877 20.0547C56.797 20.0547 56.8076 20.0573 56.8144 20.0626C56.8272 20.0727 56.8265 20.0973 56.8239 20.1266C56.8207 20.162 56.7973 20.1935 56.7759 20.203C56.7511 20.214 56.773 20.1298 56.797 20.0831C56.808 20.0615 56.8262 20.0496 56.8397 20.0415C56.8532 20.0333 56.8637 20.0307 56.8732 20.0399C56.8982 20.0644 56.8987 20.1106 56.8921 20.1493C56.8885 20.1702 56.8722 20.1906 56.8615 20.2028C56.8507 20.215 56.8427 20.2177 56.8334 20.2164C56.824 20.2151 56.8134 20.2098 56.804 20.1991C56.7945 20.1885 56.7866 20.1726 56.7825 20.1578C56.7784 20.143 56.7784 20.1298 56.7864 20.119C56.7943 20.1082 56.8102 20.1003 56.8237 20.0975C56.8371 20.0947 56.8477 20.0974 56.8545 20.104C56.8685 20.1178 56.864 20.1507 56.8547 20.1828C56.847 20.2092 56.8186 20.2177 56.8053 20.2191C56.7864 20.2211 56.7945 20.1672 56.7984 20.1404C56.7994 20.1336 56.8103 20.1453 56.8144 20.1587C56.8231 20.187 56.8159 20.2229 56.8066 20.2602C56.8018 20.2796 56.7893 20.2975 56.7786 20.2925C56.7421 20.2755 56.749 20.1676 56.7596 20.0674C56.7639 20.0275 56.7808 20.0122 56.7929 20.0041C56.8051 19.9959 56.8156 19.9959 56.8251 19.9985C56.8777 20.0133 56.8666 20.1505 56.8414 20.2228C56.8317 20.2505 56.7999 20.2578 56.7786 20.2605C56.7676 20.2619 56.7573 20.2473 56.7531 20.2366C56.749 20.2259 56.7516 20.2153 56.757 20.2072C56.7623 20.1991 56.7703 20.1938 56.7823 20.1977C56.8134 20.2077 56.8292 20.239 56.8332 20.2603C56.8352 20.271 56.8346 20.2817 56.8306 20.2884C56.8266 20.2952 56.8187 20.2979 56.8133 20.2886C56.7678 20.2111 56.8104 20.1136 56.8277 20.0976C56.8357 20.0902 56.8477 20.0921 56.8545 20.1027C56.8723 20.1306 56.864 20.1721 56.852 20.2094C56.8355 20.2609 56.7999 20.2951 56.7826 20.3019C56.7183 20.327 56.7757 20.1433 56.8024 20.1029C56.8077 20.0948 56.8184 20.0948 56.8277 20.0948C56.8371 20.0947 56.8477 20.0974 56.8558 20.108C56.8753 20.1335 56.8747 20.1695 56.872 20.1961C56.8707 20.2098 56.8641 20.2228 56.8561 20.2336C56.848 20.2444 56.8374 20.2523 56.8254 20.2498C56.8133 20.2473 56.8001 20.234 56.7933 20.2206C56.7864 20.2072 56.7864 20.1939 56.7917 20.1832C56.797 20.1724 56.8076 20.1644 56.817 20.167C56.8265 20.1695 56.8344 20.1827 56.8385 20.1961C56.8463 20.2219 56.832 20.2523 56.8107 20.2817C56.8005 20.2956 56.7893 20.3057 56.7786 20.3046C56.7678 20.3034 56.7573 20.2902 56.7518 20.2595C56.7381 20.1823 56.7622 20.1137 56.7916 20.0856C56.8035 20.0742 56.8156 20.0761 56.8224 20.084C56.839 20.1035 56.8346 20.148 56.8306 20.1933C56.8269 20.235 56.8026 20.2631 56.7866 20.2765C56.78 20.2819 56.7706 20.274 56.7652 20.2527C56.7506 20.1957 56.7623 20.1377 56.781 20.103C56.7901 20.086 56.8049 20.0737 56.8196 20.0708C56.8344 20.068 56.8503 20.0759 56.8598 20.0853C56.9001 20.1251 56.8694 20.2016 56.8574 20.2229C56.8522 20.2321 56.8427 20.2337 56.832 20.2258C56.8033 20.2046 56.7918 20.1618 56.7891 20.1284C56.7879 20.1136 56.7917 20.103 56.7984 20.0989C56.8051 20.0947 56.8156 20.0974 56.8237 20.104C56.8598 20.1336 56.8506 20.1855 56.848 20.2095C56.8467 20.2206 56.84 20.2283 56.8333 20.2204C56.8106 20.194 56.8132 20.151 56.8211 20.1323C56.8241 20.1253 56.8344 20.1295 56.8411 20.1348C56.8552 20.1459 56.8586 20.1721 56.8573 20.2028C56.8561 20.2311 56.8427 20.2524 56.8253 20.2657C56.8168 20.2724 56.8054 20.2738 56.796 20.2659C56.7386 20.2178 56.7677 20.1324 56.7797 20.1043C56.7851 20.0916 56.7943 20.0842 56.805 20.0815C56.8157 20.0787 56.8289 20.0814 56.8371 20.0946C56.878 20.1613 56.8373 20.2202 56.8253 20.2469C56.8201 20.2586 56.8107 20.2631 56.8013 20.2618C56.7919 20.2606 56.7813 20.2526 56.7745 20.2406C56.7601 20.2149 56.7624 20.1858 56.765 20.1658C56.7663 20.156 56.773 20.1484 56.7823 20.1443C56.7917 20.1402 56.8049 20.1402 56.813 20.1455C56.8548 20.1727 56.8212 20.247 56.8093 20.2657C56.8036 20.2745 56.7946 20.2791 56.7852 20.2818C56.7759 20.2845 56.7653 20.2845 56.7572 20.2806C56.7491 20.2766 56.7438 20.2687 56.7397 20.2593C56.7357 20.2499 56.733 20.2393 56.7464 20.2445" stroke="#FF0000" stroke-width="0.01" stroke-linecap="round"/>
<rect width="1" height="9" transform="matrix(-1 0 0 1 82.5354 23.1204)" fill="#D9D9D9"/>
<rect width="4" height="1" transform="matrix(-0.707107 0.707107 0.707107 0.707107 81.8284 24.1204)" fill="#D9D9D9"/>
<rect width="4" height="1" transform="matrix(0.707107 0.707107 0.707107 -0.707107 81.9998 24.8275)" fill="#D9D9D9"/>
<rect width="1" height="5" transform="matrix(-0.97437 0.224951 0.224951 0.97437 82.4924 31.1215)" fill="#D9D9D9"/>
<rect width="1" height="5" transform="matrix(-0.970296 -0.241922 -0.241922 0.970296 82.6575 31.365)" fill="#D9D9D9"/>
<path d="M81.9138 18.0254C81.8916 18.0254 81.86 18.0424 81.822 18.0908C81.785 18.1381 81.7452 18.2099 81.7058 18.3047C81.6272 18.4939 81.5499 18.7721 81.489 19.124C81.3673 19.828 81.3115 20.8253 81.4382 21.9971C81.5653 23.1717 81.6218 24.1734 81.6804 24.8789C81.7098 25.2321 81.7394 25.5104 81.7791 25.7002C81.7989 25.7953 81.821 25.8665 81.8455 25.9131C81.8704 25.9604 81.8939 25.9746 81.9138 25.9746C81.9333 25.9744 81.9587 25.9584 81.9871 25.9062C82.0146 25.8555 82.0407 25.7787 82.0652 25.6777C82.1141 25.476 82.1553 25.1829 82.1921 24.8203C82.2659 24.0954 82.3217 23.0958 82.3884 21.998C82.4551 20.9006 82.4848 19.9062 82.4207 19.1846C82.3886 18.8234 82.3326 18.5326 82.2478 18.332C82.163 18.1317 82.053 18.0292 81.9138 18.0254Z" fill="#D9D9D9" stroke="black" stroke-width="0.05"/>
<path d="M82.2863 20.1722C82.2596 20.1696 82.2276 20.1642 82.2062 20.1721C82.1499 20.1931 82.1687 20.2603 82.1726 20.2937C82.1735 20.3015 82.1924 20.2952 82.2019 20.2899C82.2192 20.2801 82.2274 20.2579 82.2354 20.2339C82.2398 20.2209 82.2381 20.2046 82.2342 20.2017C82.203 20.179 82.1794 20.2603 82.166 20.2924C82.1645 20.2959 82.1791 20.2899 82.1872 20.2819C82.1953 20.2739 82.2006 20.2633 82.202 20.2512C82.2049 20.2261 82.1928 20.2044 82.1808 20.1897C82.1748 20.1823 82.1661 20.1777 82.1581 20.1802C82.15 20.1828 82.1421 20.1934 82.138 20.2041C82.1339 20.2149 82.1339 20.2255 82.1405 20.2389C82.1562 20.2706 82.1846 20.2898 82.2059 20.2978C82.2163 20.3017 82.2272 20.3005 82.2353 20.2952C82.2764 20.2684 82.2702 20.2045 82.2676 20.1764C82.2664 20.164 82.2596 20.1563 82.2516 20.1562C82.2436 20.1561 82.233 20.164 82.2262 20.1761C82.2118 20.2017 82.2141 20.2362 82.2207 20.2629C82.2238 20.2752 82.2406 20.279 82.258 20.2738C82.3001 20.2612 82.3236 20.2205 82.333 20.1911C82.3372 20.1777 82.3397 20.1671 82.3291 20.1696C82.2505 20.1881 82.2382 20.2496 82.2341 20.267C82.2328 20.2725 82.2539 20.2659 82.2647 20.2565C82.2857 20.2384 82.2863 20.2045 82.2823 20.1777C82.2806 20.1663 82.2704 20.1616 82.261 20.1589C82.2516 20.1562 82.241 20.1562 82.2316 20.1628C82.21 20.1779 82.1981 20.2069 82.1861 20.2295C82.1801 20.2408 82.182 20.2548 82.1926 20.2537C82.2284 20.2499 82.2515 20.2097 82.2608 20.1897C82.2651 20.1804 82.2675 20.1724 82.2662 20.1643C82.2649 20.1563 82.2596 20.1483 82.2529 20.1469C82.2462 20.1454 82.2383 20.1507 82.2329 20.1587C82.2275 20.1668 82.2248 20.1773 82.2261 20.1881C82.2274 20.1988 82.2327 20.2094 82.2407 20.2149C82.2487 20.2203 82.2593 20.2203 82.2687 20.215C82.2782 20.2097 82.2861 20.1992 82.2889 20.1884C82.2916 20.1777 82.289 20.1671 82.2823 20.1616C82.2757 20.1562 82.2651 20.1562 82.2596 20.1641C82.2542 20.1721 82.2542 20.1879 82.2582 20.1988C82.2621 20.2096 82.2701 20.2149 82.2755 20.2083C82.2923 20.1881 82.2889 20.151 82.2942 20.1375C82.2994 20.1244 82.3102 20.1721 82.3262 20.1855C82.3337 20.1917 82.3422 20.1935 82.3463 20.1896C82.3504 20.1857 82.3504 20.1751 82.3478 20.1749C82.3451 20.1748 82.3397 20.1842 82.3397 20.1842C82.3387 20.1689 82.3504 20.1429 82.3451 20.1229C82.3429 20.1146 82.3292 20.1161 82.3198 20.1201C82.3104 20.124 82.3025 20.132 82.297 20.1413C82.2916 20.1507 82.289 20.1613 82.2916 20.1694C82.2942 20.1775 82.3021 20.1828 82.3075 20.1802C82.3215 20.1736 82.3183 20.1403 82.3091 20.1162C82.3046 20.1047 82.2813 20.1081 82.2704 20.112C82.2596 20.116 82.2569 20.1239 82.2555 20.1333C82.2527 20.1531 82.2595 20.1774 82.2715 20.1988C82.2804 20.2147 82.3022 20.215 82.3195 20.2123C82.3302 20.2107 82.3395 20.1939 82.345 20.1778C82.3504 20.1617 82.3504 20.1432 82.3425 20.131C82.3345 20.1188 82.3187 20.1135 82.3012 20.1108C82.2838 20.1081 82.2653 20.1081 82.2531 20.116C82.2283 20.1321 82.2301 20.1668 82.2328 20.1894C82.2342 20.2017 82.2407 20.2147 82.2474 20.2229C82.2541 20.231 82.262 20.2336 82.2714 20.2244C82.2974 20.1989 82.3023 20.1563 82.2957 20.1257C82.2923 20.1098 82.2758 20.0976 82.265 20.0895C82.2543 20.0814 82.2463 20.0787 82.2369 20.0813C82.2276 20.0839 82.217 20.0919 82.2102 20.1026C82.1964 20.1243 82.2007 20.1587 82.2074 20.192C82.2127 20.2186 82.238 20.2389 82.2673 20.2563C82.2803 20.264 82.2914 20.2657 82.3021 20.2644C82.3129 20.2631 82.3235 20.2579 82.3302 20.2472C82.3453 20.2234 82.3424 20.1937 82.3384 20.1724C82.3363 20.1611 82.3265 20.151 82.3092 20.1456C82.2919 20.1401 82.2654 20.1401 82.2491 20.1454C82.2329 20.1507 82.2276 20.1613 82.2248 20.1721C82.2143 20.2136 82.2381 20.2496 82.2567 20.271C82.2656 20.2811 82.2806 20.2818 82.2954 20.2752C82.3301 20.2597 82.345 20.2205 82.349 20.1885C82.3511 20.1724 82.3504 20.1565 82.3451 20.1417C82.3343 20.1114 82.3051 20.0948 82.2758 20.0867C82.2601 20.0824 82.2412 20.084 82.2303 20.088C82.1877 20.1035 82.2061 20.1828 82.2074 20.2028C82.208 20.2123 82.2114 20.2202 82.2193 20.219C82.2273 20.2178 82.2406 20.2072 82.2474 20.1832C82.2542 20.1592 82.2542 20.1222 82.2489 20.1004C82.2436 20.0787 82.233 20.0734 82.2236 20.072C82.2142 20.0706 82.2062 20.0733 82.1968 20.0799C82.136 20.1231 82.1526 20.2283 82.1606 20.2443C82.1698 20.2629 82.19 20.2737 82.2073 20.2818C82.2161 20.2859 82.2272 20.2845 82.2353 20.2779C82.2434 20.2712 82.2487 20.258 82.2515 20.2446C82.2542 20.2312 82.2542 20.2179 82.2449 20.2071C82.2231 20.1817 82.1875 20.1802 82.1675 20.1829C82.1578 20.1842 82.1501 20.1908 82.146 20.2055C82.1419 20.2201 82.1419 20.2439 82.1472 20.2562C82.1525 20.2684 82.1631 20.2684 82.1738 20.2618C82.1986 20.2465 82.2114 20.2125 82.2141 20.1871C82.2151 20.1773 82.2009 20.1749 82.1928 20.1815C82.1725 20.198 82.174 20.2362 82.1806 20.2656C82.1839 20.2802 82.2005 20.2896 82.2112 20.2964C82.222 20.3032 82.23 20.3058 82.2407 20.2979C82.2694 20.2767 82.2782 20.2233 82.2716 20.1726C82.2622 20.1002 82.1794 20.1028 82.1594 20.0961C82.1504 20.0931 82.1421 20.0973 82.1367 20.1027C82.1313 20.108 82.1286 20.1159 82.1325 20.1253C82.1365 20.1347 82.1471 20.1453 82.1472 20.152C82.1475 20.1661 82.1232 20.1721 82.1206 20.1895C82.1175 20.2094 82.1312 20.2283 82.1432 20.2496C82.1505 20.2626 82.1578 20.2814 82.1632 20.2552C82.1686 20.2291 82.1713 20.1576 82.1726 20.1512C82.184 20.0979 82.2486 20.3955 82.2112 20.3301M82.2112 20.3301C82.1833 20.2812 82.251 20.3222 82.2578 20.3047C82.2703 20.2724 82.2863 20.2979 82.281 20.2872C82.2726 20.2702 82.2515 20.3165 82.2489 20.3232C82.2444 20.3344 82.2542 20.282 82.2502 20.2579C82.2491 20.2511 82.2383 20.2603 82.2329 20.2696C82.2275 20.279 82.2248 20.2896 82.2274 20.2845C82.2403 20.2592 82.2462 20.2099 82.2395 20.1777C82.2378 20.1692 82.2197 20.1879 82.2129 20.212C82.2061 20.236 82.2061 20.2678 82.214 20.2709C82.2219 20.2741 82.2378 20.2476 82.246 20.2287C82.2542 20.2097 82.2542 20.1992 82.2489 20.1977C82.2436 20.1962 82.233 20.2041 82.2249 20.2148C82.2084 20.2367 82.2061 20.2683 82.2074 20.2884C82.2092 20.3151 82.2221 20.2231 82.2142 20.2071C82.2104 20.1995 82.1904 20.2121 82.1795 20.2215C82.1687 20.2309 82.1634 20.2415 82.1607 20.2522C82.158 20.263 82.158 20.2736 82.1619 20.2698C82.1802 20.2522 82.1847 20.2151 82.1873 20.1898C82.1886 20.1777 82.1847 20.1671 82.1768 20.1643C82.1688 20.1615 82.1556 20.1668 82.1461 20.1761C82.1269 20.1951 82.1259 20.2467 82.1312 20.3028C82.1333 20.325 82.1471 20.3324 82.1578 20.3312C82.1685 20.33 82.1791 20.3194 82.1872 20.3047C82.2045 20.2733 82.2061 20.2259 82.2008 20.1792C82.1984 20.1584 82.1849 20.1458 82.1755 20.1403C82.1661 20.1348 82.1581 20.1374 82.1514 20.1454C82.1086 20.196 82.1365 20.287 82.1485 20.323C82.1547 20.3418 82.1737 20.3563 82.1924 20.3526C82.24 20.3431 82.2595 20.2793 82.2675 20.2367C82.2715 20.2154 82.2702 20.194 82.2663 20.1858C82.2609 20.1747 82.2276 20.22 82.2009 20.2734C82.1905 20.2941 82.1953 20.3056 82.2007 20.3045C82.2487 20.294 82.2381 20.2205 82.2342 20.1991C82.2329 20.1924 82.2223 20.1988 82.2142 20.2055C82.1975 20.2194 82.1847 20.2469 82.1794 20.2696C82.1775 20.2776 82.1927 20.2418 82.1914 20.2284C82.1909 20.2236 82.1769 20.2309 82.1701 20.2403C82.1557 20.2601 82.158 20.2897 82.1593 20.315C82.1599 20.3272 82.1633 20.3377 82.1712 20.3405C82.1792 20.3433 82.1924 20.338 82.2019 20.3208C82.2253 20.2781 82.2221 20.2312 82.2168 20.2151C82.2149 20.2094 82.2009 20.2202 82.1928 20.2309C82.1763 20.2527 82.174 20.3002 82.1806 20.343C82.1826 20.3558 82.2005 20.3435 82.2112 20.3301ZM82.2112 20.3301C82.222 20.3167 82.23 20.3008 82.2288 20.2953C82.2276 20.2898 82.217 20.2951 82.2089 20.3044C82.2008 20.3137 82.1955 20.327 82.1981 20.3259C82.2494 20.3034 82.2301 20.2206 82.2262 20.1832C82.2247 20.1691 82.2143 20.1669 82.2075 20.1695C82.2008 20.1721 82.1955 20.1801 82.1941 20.1895C82.1927 20.1988 82.1953 20.2094 82.202 20.2162C82.2086 20.223 82.2192 20.2256 82.2301 20.2283" stroke="#FF0000" stroke-width="0.01" stroke-linecap="round"/>
<path d="M81.6367 20.1081C81.6579 20.1693 81.7141 20.239 81.7381 20.259C81.7491 20.2682 81.7568 20.2764 81.7477 20.2514C81.7385 20.2263 81.7121 20.1681 81.7103 20.1659C81.7086 20.1637 81.7324 20.2193 81.7447 20.2373C81.757 20.2554 81.757 20.2342 81.7556 20.214C81.7511 20.1443 81.717 20.1162 81.701 20.1029C81.6935 20.0967 81.685 20.0948 81.6782 20.1027C81.6594 20.1248 81.6607 20.1588 81.6674 20.1921C81.6792 20.2513 81.7088 20.2925 81.7221 20.2953C81.778 20.3068 81.7276 20.1859 81.7063 20.1443C81.7015 20.135 81.6877 20.1349 81.6796 20.1402C81.6363 20.1682 81.6634 20.231 81.6727 20.251C81.6776 20.2615 81.6899 20.2684 81.7007 20.2724C81.7114 20.2765 81.722 20.2765 81.7314 20.2673C81.7548 20.2443 81.757 20.2072 81.7556 20.1832C81.7546 20.164 81.741 20.1457 81.725 20.1323C81.7185 20.1268 81.709 20.1348 81.7049 20.1428C81.6963 20.1597 81.7035 20.1855 81.7128 20.2122C81.7232 20.2422 81.7489 20.2578 81.7649 20.2631C81.7725 20.2657 81.7809 20.2579 81.785 20.242C81.789 20.226 81.789 20.1996 81.7838 20.1833C81.7785 20.167 81.7679 20.1617 81.7611 20.1682C81.7418 20.1868 81.7516 20.2256 81.7583 20.2496C81.7613 20.2607 81.7676 20.2684 81.7743 20.2658C81.7944 20.2582 81.7971 20.2179 81.7918 20.1806C81.789 20.1612 81.7759 20.1433 81.7651 20.1311C81.7544 20.1189 81.7438 20.1136 81.7331 20.1148C81.7223 20.1161 81.7117 20.124 81.7063 20.1374C81.6941 20.1673 81.7114 20.2042 81.7314 20.2309C81.74 20.2424 81.7488 20.247 81.7542 20.2431C81.7952 20.2137 81.7623 20.1457 81.7504 20.127C81.7438 20.1166 81.7252 20.1136 81.7117 20.1162C81.6983 20.1187 81.6877 20.1293 81.6809 20.1427C81.667 20.1701 81.6714 20.2016 81.6794 20.2256C81.6832 20.237 81.6927 20.2443 81.702 20.2431C81.7114 20.2419 81.722 20.2313 81.7275 20.2153C81.7329 20.1992 81.7329 20.1781 81.7263 20.1685C81.7197 20.1589 81.7065 20.1615 81.697 20.1669C81.6875 20.1722 81.6822 20.1801 81.6795 20.1935C81.6768 20.2068 81.6768 20.2254 81.6808 20.2376C81.6847 20.2497 81.6927 20.255 81.6981 20.2485C81.7149 20.2282 81.7089 20.1832 81.7049 20.1485C81.7033 20.1344 81.693 20.1296 81.6889 20.1454C81.6756 20.1967 81.6874 20.247 81.6994 20.2736C81.7178 20.3146 81.7489 20.338 81.7609 20.338C81.8222 20.3384 81.7305 20.1755 81.649 20.079C81.637 20.0648 81.6314 20.0759 81.63 20.0893C81.6208 20.1799 81.6687 20.2737 81.682 20.2832C81.7419 20.3256 81.6503 20.1033 81.6101 20.0627C81.5556 20.0077 81.6393 20.1855 81.6593 20.2042C81.6672 20.2117 81.6766 20.2071 81.682 20.1991C81.6874 20.1911 81.6901 20.1779 81.6888 20.1645C81.6875 20.151 81.6822 20.1378 81.6742 20.1336C81.6662 20.1295 81.6556 20.1348 81.6488 20.1428C81.6354 20.1587 81.6367 20.1882 81.642 20.2175C81.6446 20.2318 81.6579 20.2416 81.6673 20.2404C81.6767 20.2392 81.6846 20.226 81.6887 20.2099C81.6973 20.1762 81.6875 20.1351 81.6755 20.1004C81.6706 20.0861 81.6609 20.0815 81.6555 20.0973C81.6382 20.1479 81.6712 20.2227 81.7179 20.2775C81.7365 20.2993 81.7514 20.3032 81.7621 20.3072C81.7729 20.3113 81.7809 20.3139 81.7876 20.302C81.8074 20.2671 81.8051 20.2047 81.7958 20.1486C81.7916 20.123 81.768 20.1085 81.7545 20.1016C81.741 20.0947 81.7331 20.0974 81.7263 20.1054C81.689 20.1496 81.7222 20.2149 81.7342 20.2336C81.7398 20.2425 81.7488 20.247 81.7582 20.2392C81.7852 20.2165 81.789 20.1751 81.7838 20.1498C81.7811 20.1368 81.7679 20.1271 81.7571 20.1216C81.7464 20.1162 81.7358 20.1162 81.7277 20.1214C81.7196 20.1267 81.7143 20.1373 81.7129 20.1467C81.7115 20.1562 81.7142 20.1641 81.7195 20.1708C81.7248 20.1776 81.7328 20.1829 81.7421 20.175C81.7691 20.1524 81.773 20.103 81.769 20.0696C81.7675 20.0568 81.7571 20.0547 81.7477 20.0547C81.7384 20.0547 81.7278 20.0573 81.721 20.0626C81.7082 20.0727 81.7089 20.0973 81.7115 20.1266C81.7147 20.162 81.7381 20.1935 81.7595 20.203C81.7843 20.214 81.7624 20.1298 81.7384 20.0831C81.7274 20.0615 81.7092 20.0496 81.6957 20.0415C81.6822 20.0333 81.6717 20.0307 81.6622 20.0399C81.6372 20.0644 81.6367 20.1106 81.6433 20.1493C81.6469 20.1702 81.6632 20.1906 81.6739 20.2028C81.6847 20.215 81.6927 20.2177 81.702 20.2164C81.7114 20.2151 81.722 20.2098 81.7314 20.1991C81.7409 20.1885 81.7488 20.1726 81.7529 20.1578C81.757 20.143 81.757 20.1298 81.749 20.119C81.7411 20.1082 81.7252 20.1003 81.7117 20.0975C81.6983 20.0947 81.6877 20.0974 81.6809 20.104C81.6669 20.1178 81.6714 20.1507 81.6807 20.1828C81.6884 20.2092 81.7168 20.2177 81.7301 20.2191C81.749 20.2211 81.7409 20.1672 81.737 20.1404C81.736 20.1336 81.7251 20.1453 81.721 20.1587C81.7123 20.187 81.7195 20.2229 81.7288 20.2602C81.7336 20.2796 81.7461 20.2975 81.7568 20.2925C81.7933 20.2755 81.7864 20.1676 81.7758 20.0674C81.7715 20.0275 81.7546 20.0122 81.7425 20.0041C81.7303 19.9959 81.7198 19.9959 81.7103 19.9985C81.6577 20.0133 81.6688 20.1505 81.694 20.2228C81.7037 20.2505 81.7355 20.2578 81.7568 20.2605C81.7678 20.2619 81.7781 20.2473 81.7823 20.2366C81.7864 20.2259 81.7838 20.2153 81.7784 20.2072C81.7731 20.1991 81.7651 20.1938 81.7531 20.1977C81.722 20.2077 81.7062 20.239 81.7022 20.2603C81.7002 20.271 81.7008 20.2817 81.7048 20.2884C81.7088 20.2952 81.7167 20.2979 81.7221 20.2886C81.7676 20.2111 81.725 20.1136 81.7077 20.0976C81.6997 20.0902 81.6877 20.0921 81.6809 20.1027C81.6631 20.1306 81.6714 20.1721 81.6834 20.2094C81.6999 20.2609 81.7355 20.2951 81.7528 20.3019C81.8171 20.327 81.7597 20.1433 81.733 20.1029C81.7277 20.0948 81.717 20.0948 81.7077 20.0948C81.6983 20.0947 81.6877 20.0974 81.6796 20.108C81.6601 20.1335 81.6607 20.1695 81.6634 20.1961C81.6647 20.2098 81.6713 20.2228 81.6793 20.2336C81.6874 20.2444 81.698 20.2523 81.71 20.2498C81.7221 20.2473 81.7353 20.234 81.7421 20.2206C81.749 20.2072 81.749 20.1939 81.7437 20.1832C81.7384 20.1724 81.7278 20.1644 81.7184 20.167C81.7089 20.1695 81.701 20.1827 81.6969 20.1961C81.6891 20.2219 81.7034 20.2523 81.7247 20.2817C81.7349 20.2956 81.7461 20.3057 81.7568 20.3046C81.7676 20.3034 81.7781 20.2902 81.7836 20.2595C81.7973 20.1823 81.7732 20.1137 81.7438 20.0856C81.7319 20.0742 81.7198 20.0761 81.713 20.084C81.6964 20.1035 81.7008 20.148 81.7048 20.1933C81.7085 20.235 81.7328 20.2631 81.7488 20.2765C81.7554 20.2819 81.7648 20.274 81.7702 20.2527C81.7848 20.1957 81.7731 20.1377 81.7544 20.103C81.7453 20.086 81.7305 20.0737 81.7158 20.0708C81.701 20.068 81.6851 20.0759 81.6756 20.0853C81.6353 20.1251 81.666 20.2016 81.678 20.2229C81.6832 20.2321 81.6927 20.2337 81.7034 20.2258C81.7321 20.2046 81.7436 20.1618 81.7463 20.1284C81.7475 20.1136 81.7437 20.103 81.737 20.0989C81.7303 20.0947 81.7198 20.0974 81.7117 20.104C81.6756 20.1336 81.6848 20.1855 81.6874 20.2095C81.6887 20.2206 81.6954 20.2283 81.7021 20.2204C81.7248 20.194 81.7222 20.151 81.7143 20.1323C81.7113 20.1253 81.701 20.1295 81.6943 20.1348C81.6802 20.1459 81.6768 20.1721 81.6781 20.2028C81.6793 20.2311 81.6927 20.2524 81.7101 20.2657C81.7186 20.2724 81.73 20.2738 81.7394 20.2659C81.7968 20.2178 81.7677 20.1324 81.7557 20.1043C81.7503 20.0916 81.7411 20.0842 81.7304 20.0815C81.7197 20.0787 81.7065 20.0814 81.6983 20.0946C81.6574 20.1613 81.6981 20.2202 81.7101 20.2469C81.7153 20.2586 81.7247 20.2631 81.7341 20.2618C81.7435 20.2606 81.7541 20.2526 81.7609 20.2406C81.7753 20.2149 81.773 20.1858 81.7704 20.1658C81.7691 20.156 81.7624 20.1484 81.7531 20.1443C81.7437 20.1402 81.7305 20.1402 81.7224 20.1455C81.6806 20.1727 81.7142 20.247 81.7261 20.2657C81.7318 20.2745 81.7408 20.2791 81.7502 20.2818C81.7595 20.2845 81.7701 20.2845 81.7782 20.2806C81.7863 20.2766 81.7916 20.2687 81.7957 20.2593C81.7997 20.2499 81.8024 20.2393 81.789 20.2445" stroke="#FF0000" stroke-width="0.01" stroke-linecap="round"/>
</svg>
